# xmcd
#
# Track frame offsets: 
#        150
#        8972
#        19450
#        30424
#        40684
#        51611
#        60855
#        71124
#        80592
#        90823
#        101198
#        111337
#        121593
#        133283
#        142853
#        152327
#
# Disc length: 2163 seconds
#
# Revision: 0
# Processed by: cddbd v1.5.2PL0 Copyright (c) Steve Scherf et al.
# Submitted via: ExactAudioCopy v0.95a4
#
DISCID=cc087110
DTITLE=The Everly Brothers - Essential Early Recordings [CD 1)
DYEAR=2010
DGENRE=Rock and Roll
TTITLE0=Problems
TTITLE1=('Til) I Kissed You
TTITLE2=Take A Message To Mary
TTITLE3=Poor Jenny
TTITLE4=Bye Bye Love
TTITLE5=Wake Up Little Susie
TTITLE6=This Little Girl Of Mine
TTITLE7=Maybe Tomorrow
TTITLE8=Brand New Heartache
TTITLE9=Be Bop-A-Lula
TTITLE10=Rip It Up
TTITLE11=Keep A Knockin'
TTITLE12=Leave My Woman Alone
TTITLE13=Should We Tell Him?
TTITLE14=Hey Doll Baby
TTITLE15=I Wonder If I Care As Much
EXTD=
EXTT0=
EXTT1=
EXTT2=
EXTT3=
EXTT4=
EXTT5=
EXTT6=
EXTT7=
EXTT8=
EXTT9=
EXTT10=
EXTT11=
EXTT12=
EXTT13=
EXTT14=
EXTT15=
PLAYORDER=
